<?xml version="1.0" encoding="UTF-8"?>
<svg version="1.1" xmlns="http://www.w3.org/2000/svg" x="0" y="0" width="130" height="130" viewBox="0, 0, 130, 130">
  <rect x="0" y="0" width="130" height="130" fill="#FFFFFF"/>
  <path d="M3.56,3.77 L126.44,3.77 L126.44,126.22 L3.56,126.22 z" fill="#FFFFFF"/>
  <path d="M70.69,3.77 L70.69,59.52 L126.44,59.52 L126.44,70.27 L70.69,70.27 L70.69,126.02 L59.94,126.02 L59.94,70.27 L4.19,70.27 L4.19,59.52 L59.94,59.52 L59.94,3.77 L70.69,3.77 L70.69,3.77 z M123.23,90.78 L111,102.42 L123.57,114.38 L116.18,122.15 L103.22,109.82 L90.26,122.16 L82.87,114.39 L95.44,102.43 L83.21,90.78 L90.6,83.02 L103.22,95.03 L115.84,83.02 L123.23,90.78 L123.23,90.78 z M47.64,14.93 L35.24,26.73 L47.64,38.53 L40.25,46.3 L27.46,34.13 L14.67,46.3 L7.28,38.53 L19.68,26.73 L7.28,14.93 L14.67,7.17 L27.46,19.33 L40.25,7.16 L47.64,14.93 L47.64,14.93 z M26.44,80.47 C32.76,80.47 38.48,83.03 42.62,87.17 C46.76,91.31 49.32,97.03 49.32,103.35 C49.32,109.67 46.76,115.39 42.62,119.53 C38.48,123.67 32.76,126.23 26.44,126.23 C20.12,126.23 14.4,123.67 10.26,119.53 C6.12,115.38 3.56,109.66 3.56,103.35 C3.56,97.03 6.12,91.31 10.26,87.17 C14.4,83.03 20.12,80.47 26.44,80.47 L26.44,80.47 z M35.02,94.77 C32.83,92.58 29.79,91.22 26.44,91.22 C23.09,91.22 20.05,92.58 17.86,94.77 C15.67,96.96 14.31,100 14.31,103.35 C14.31,106.7 15.67,109.74 17.86,111.93 C20.05,114.12 23.09,115.48 26.44,115.48 C29.79,115.48 32.82,114.12 35.02,111.93 C37.21,109.73 38.57,106.7 38.57,103.35 C38.57,100 37.21,96.96 35.02,94.77 L35.02,94.77 z M103.05,3.85 C109.37,3.85 115.09,6.41 119.23,10.55 C123.37,14.69 125.93,20.41 125.93,26.73 C125.93,33.05 123.37,38.77 119.23,42.91 C115.09,47.05 109.37,49.61 103.05,49.61 C96.73,49.61 91.01,47.05 86.87,42.91 C82.73,38.77 80.17,33.05 80.17,26.73 C80.17,20.41 82.73,14.69 86.87,10.55 C91.02,6.42 96.74,3.85 103.05,3.85 L103.05,3.85 z M111.63,18.15 C109.43,15.96 106.4,14.6 103.05,14.6 C99.7,14.6 96.67,15.96 94.47,18.15 C92.27,20.34 90.92,23.38 90.92,26.73 C90.92,30.08 92.28,33.11 94.47,35.31 C96.66,37.5 99.7,38.86 103.05,38.86 C106.4,38.86 109.43,37.5 111.63,35.31 C113.82,33.11 115.18,30.08 115.18,26.73 C115.18,23.38 113.83,20.35 111.63,18.15 L111.63,18.15 z" fill="#000000"/>
</svg>
